<svg height="415pt" viewBox="0 -11 415.30151 415" width="415pt" xmlns="http://www.w3.org/2000/svg" style="fill:#EDAB4A;"><path d="m337.976562 250.664062c-3.769531 0-6.828124-3.054687-6.828124-6.828124v-2.597657c0-7.980469-11.386719-15.808593-22.988282-15.808593h-27.914062c-3.769532 0-6.824219-3.050782-6.824219-6.824219 0-3.773438 3.054687-6.828125 6.824219-6.828125h27.914062c17.332032 0 36.640625 12.101562 36.640625 29.460937v2.597657c0 3.773437-3.054687 6.828124-6.824219 6.828124zm0 0"/><path d="m310.675781 167.402344c-.1875 0-.375-.003906-.5625-.019532-3.761719-.3125-6.558593-3.605468-6.246093-7.363281l3.414062-41.667969c-.027344-23.519531-18.214844-43.109374-40.570312-43.109374h-34.960938c-22.359375 0-40.546875 19.589843-40.546875 43.667968l3.386719 41.109375c.3125 3.757813-2.484375 7.050781-6.246094 7.363281-3.734375.308594-7.046875-2.484374-7.359375-6.246093l-3.410156-41.667969c-.023438-32.164062 24.289062-57.878906 54.175781-57.878906h34.957031c29.890625 0 54.203125 25.714844 54.203125 57.320312l-3.4375 42.226563c-.292968 3.566406-3.277344 6.265625-6.796875 6.265625zm0 0"/><path d="m249.230469 232.257812c-8.09375 0-16.25-1.300781-23.589844-3.765624-3.574219-1.199219-5.5-5.074219-4.296875-8.648438 1.203125-3.570312 5.070312-5.484375 8.640625-4.300781 5.957031 2 12.609375 3.0625 19.242187 3.0625 15.472657 0 29.789063-5.601563 37.359376-14.621094 10.320312-12.304687 17.253906-29.867187 17.253906-43.695313v-27.511718c0-3.585938-.734375-5.980469-2.179688-7.097656-5.144531-4.007813-21.492187.144531-35.914062 3.804687-13.183594 3.347656-26.808594 6.8125-39.15625 6.8125-15.363282 0-25.707032-5.527344-31.898438-9.328125-.046875 1.527344-.074218 3.429688-.074218 5.808594v27.511718c0 9.960938 3.710937 22.355469 9.929687 33.152344 1.882813 3.269532.757813 7.441406-2.507813 9.320313-3.269531 1.886719-7.441406.765625-9.324218-2.507813-7.46875-12.972656-11.753906-27.539062-11.753906-39.964844v-27.511718c0-11.609375.261718-18.320313 5.664062-21.300782 4.816406-2.699218 9.375.199219 13.390625 2.71875 5.335937 3.367188 13.402344 8.449219 26.574219 8.449219 10.636718 0 23.425781-3.253906 35.792968-6.394531 19.988282-5.074219 37.234376-9.464844 47.660157-1.351562 4.945312 3.84375 7.449219 9.859374 7.449219 17.878906v27.511718c0 17.0625-8.023438 37.652344-20.449219 52.46875-10.242188 12.210938-28.121094 19.5-47.8125 19.5zm0 0"/><path d="m311.527344 316.816406c-3.121094 0-5.941406-2.160156-6.652344-5.332031-.824219-3.679687 1.492188-7.332031 5.171875-8.152344l81.015625-18.140625c3.007812-.53125 5.359375-2.027344 6.929688-4.265625 1.570312-2.238281 2.175781-4.953125 1.703124-7.648437-.625-3.578125-3.136718-6.585938-6.542968-7.851563-3.539063-1.308593-5.34375-5.234375-4.03125-8.773437 1.3125-3.535156 5.253906-5.355469 8.769531-4.027344 7.945313 2.941406 13.792969 9.953125 15.253906 18.292969 1.105469 6.289062-.308593 12.625-3.976562 17.847656-3.664063 5.226563-9.148438 8.707031-15.4375 9.8125l-80.703125 18.074219c-.5.109375-1.003906.164062-1.5.164062zm0 0"/><path d="m219.167969 355.136719h-51.859375c-.496094 0-.992188-.050781-1.480469-.160157l-61.4375-13.652343c-3.679687-.820313-6.003906-4.46875-5.183594-8.144531.816407-3.679688 4.457031-5.976563 8.140625-5.1875l60.710938 13.492187h51.109375c26.640625 0 52.773437-9.167969 73.582031-25.8125.183594-.148437.375-.28125.570312-.40625l101.042969-64.972656c.328125-.214844.671875-.394531 1.027344-.546875 2.519531-1.066406 4.46875-3.054688 5.496094-5.585938 1.027343-2.539062 1-5.328125-.066407-7.839844-2.207031-5.203124-8.230468-7.636718-13.425781-5.429687l-101.429687 41.816406c-.824219.339844-1.710938.511719-2.601563.511719h-129.707031c-2.460938 0-4.730469-1.320312-5.941406-3.460938-1.210938-2.144531-1.175782-4.773437.089844-6.878906l20.480468-34.132812c1.230469-2.050782 3.453125-3.3125 5.851563-3.3125h27.308593c12.699219 0 23.402344-8.710938 26.441407-20.480469h-71.996094l-93.125 68.296875c-3.046875 2.230469-7.308594 1.558594-9.542969-1.46875-2.226562-3.039062-1.570312-7.3125 1.46875-9.546875l94.929688-69.613281c1.167968-.859375 2.582031-1.320313 4.035156-1.320313h81.917969c3.769531 0 6.828125 3.054688 6.828125 6.828125 0 22.585938-18.375 40.960938-40.960938 40.960938h-23.4375l-12.289062 20.480468h116.296875l100.117187-41.273437c12.066406-5.128906 26.117188.566406 31.261719 12.691406 2.492187 5.875 2.550781 12.367188.15625 18.289063-2.3125 5.726562-6.648437 10.246094-12.242187 12.792968l-100.300782 64.492188c-23.179687 18.425781-52.222656 28.574219-81.835937 28.574219zm0 0"/><path d="m73.863281 393.769531c-.363281 0-.730469-.027343-1.09375-.085937-1.789062-.292969-3.386719-1.28125-4.445312-2.746094l-67.03125-92.988281c-1.0625-1.464844-1.496094-3.300781-1.2031252-5.085938.2890622-1.785156 1.2773442-3.382812 2.7460942-4.445312l44.296874-31.933594c3.066407-2.179687 7.328126-1.507813 9.53125 1.546875l67.03125 92.980469c2.207032 3.058593 1.515626 7.324219-1.542968 9.53125l-44.296875 31.941406c-1.167969.839844-2.570313 1.285156-3.992188 1.285156zm-57.503906-98.265625 59.050781 81.90625 33.222656-23.953125-59.050781-81.90625zm0 0"/><path d="m92.214844 348.3125c0 7.539062-6.113282 13.652344-13.652344 13.652344s-13.652344-6.113282-13.652344-13.652344c0-7.542969 6.113282-13.65625 13.652344-13.65625s13.652344 6.113281 13.652344 13.65625zm0 0"/><path d="m249.230469 41.109375c-3.773438 0-6.828125-3.050781-6.828125-6.824219v-27.308594c0-3.773437 3.054687-6.824218 6.828125-6.824218 3.769531 0 6.824219 3.050781 6.824219 6.824218v27.308594c0 3.773438-3.054688 6.824219-6.824219 6.824219zm0 0"/><path d="m276.535156 41.109375c-1.746094 0-3.492187-.664063-4.824218-2-2.667969-2.664063-2.667969-6.984375 0-9.652344l23.890624-23.894531c2.667969-2.664062 6.988282-2.664062 9.652344 0 2.667969 2.667969 2.667969 6.988281 0 9.65625l-23.890625 23.890625c-1.335937 1.335937-3.078125 2-4.828125 2zm0 0"/><path d="m221.921875 41.109375c-1.746094 0-3.492187-.664063-4.824219-2l-20.480468-20.480469c-2.667969-2.664062-2.667969-6.984375 0-9.652344 2.664062-2.664062 6.984374-2.664062 9.652343 0l20.480469 20.480469c2.664062 2.667969 2.664062 6.988281 0 9.652344-1.335938 1.335937-3.082031 2-4.828125 2zm0 0"/></svg>