<svg height="480pt" viewBox="0 -16 480.00003 480" width="480pt" xmlns="http://www.w3.org/2000/svg"  style="fill:#EDAB4A;"><path d="m456 96h-104v-64c0-17.671875-14.328125-32-32-32h-160c-17.671875 0-32 14.328125-32 32v64h-104c-13.253906 0-24 10.746094-24 24v96c-.00390625 2.863281 1.519531 5.511719 4 6.945312l12 6.839844v194.214844c0 13.253906 10.746094 24 24 24h400c13.253906 0 24-10.746094 24-24v-194.214844l12-6.839844c2.480469-1.433593 4.003906-4.082031 4-6.945312v-96c0-13.253906-10.746094-24-24-24zm-136 0v-32h16v32zm-16 0h-128v-48h128zm-144-80h160c8.835938 0 16 7.164062 16 16v16h-16v-8c0-4.417969-3.582031-8-8-8h-144c-4.417969 0-8 3.582031-8 8v8h-16v-16c0-8.835938 7.164062-16 16-16zm-16 48h16v32h-16zm320 147.359375-50.128906 28.640625h-13.871094v16h16c1.402344.007812 2.785156-.355469 4-1.054688l28-16v185.054688c0 4.417969-3.582031 8-8 8h-400c-4.417969 0-8-3.582031-8-8v-185.070312l28 16c1.214844.703124 2.59375 1.074218 4 1.070312h16v-16h-13.871094l-50.128906-28.640625v-91.359375c0-4.417969 3.582031-8 8-8h432c4.417969 0 8 3.582031 8 8zm0 0"/><path d="m32 136v32h16v-24h24v-16h-32c-4.417969 0-8 3.582031-8 8zm0 0"/><path d="m440 128h-32v16h24v24h16v-32c0-4.417969-3.582031-8-8-8zm0 0"/><path d="m341.9375 184h18.0625v-16h-97.472656c-3.339844-9.585938-12.378906-16.007812-22.527344-16.007812s-19.1875 6.421874-22.527344 16.007812h-97.472656v16h18.0625l-48.972656 84c-.710938 1.214844-1.085938 2.59375-1.089844 4v32c0 22.054688 28.710938 40 64 40s64-17.945312 64-40v-32c-.003906-1.40625-.378906-2.785156-1.089844-4l-48.972656-84h51.535156c2.417969 6.777344 7.75 12.109375 14.527344 14.527344v201.472656h-48v16h112v-16h-48v-201.472656c6.777344-2.417969 12.109375-7.75 14.527344-14.527344h51.535156l-48.972656 84c-.710938 1.214844-1.085938 2.59375-1.089844 4v32c0 22.054688 28.710938 40 64 40s64-17.945312 64-40v-32c-.003906-1.40625-.378906-2.785156-1.089844-4zm-141.9375 120c0 9.785156-18.695312 24-48 24s-48-14.214844-48-24v-8h96zm0-24h-96v-5.832031l48-82.289063 48 82.289063zm40-96c-4.417969 0-8-3.582031-8-8s3.582031-8 8-8 8 3.582031 8 8-3.582031 8-8 8zm88 7.878906 48 82.289063v5.832031h-96v-5.832031zm48 112.121094c0 9.785156-18.695312 24-48 24s-48-14.214844-48-24v-8h96zm0 0"/><path d="m88 168h16v16h-16zm0 0"/><path d="m376 168h16v16h-16zm0 0"/><path d="m312 400h16v16h-16zm0 0"/><path d="m152 400h16v16h-16zm0 0"/></svg>