<?xml version="1.0" encoding="utf-8"?>
<!-- Generator: Adobe Illustrator 22.1.0, SVG Export Plug-In . SVG Version: 6.00 Build 0)  -->
<svg version="1.1" id="LFC" xmlns="http://www.w3.org/2000/svg" xmlns:xlink="http://www.w3.org/1999/xlink" x="0px" y="0px"
	 viewBox="0 0 600 250" style="enable-background:new 0 0 600 250;" xml:space="preserve">
<style type="text/css">
	.st0{fill:#D3DCFB;}
	.st1{fill:#58DB73;}
	.st2{fill:#1DA032;}
	.st3{fill:#EDAB4A;}
	.st4{fill:#E9EFFF;}
	.st5{fill:#222222;}
</style>
<g id="Text">
	<path id="C" d="M571.5,69.5c2.8,1.3,6.1,1.2,8.7-0.5c0.2-0.1,0.3-0.2,0.5-0.3c1.4-0.8,3-1.2,4.6-1.2c2.9,0,5.2,1,7,2.9
		c1.8,2,2.7,5.3,2.7,10v16.5c0,4.7-0.9,8-2.7,10s-4.1,3-7,3c-2.6,0-4.7-0.7-6.3-2.2c-1.6-1.5-2.8-4.2-3.5-8.2
		c-0.4-2.7-1.3-4.7-2.7-6.2c-2.6-2.9-6.2-5.1-10.9-6.8c-4.7-1.7-9.3-2.6-14-2.6c-5.8,0-11.2,1.3-16.1,3.8
		c-4.9,2.5-9.2,6.7-12.9,12.4c-3.7,5.7-5.6,12.5-5.6,20.3v12.6c0,9.4,3.4,17.2,10.2,23.5c6.8,6.3,16.3,9.4,28.4,9.4
		c7.2,0,13.3-1,18.4-2.9c2.9-1.1,6-3.4,9.3-6.8c2-2,3.6-3.3,4.8-3.9c1.1-0.6,2.4-0.9,3.9-0.9c2.6,0,4.9,1,6.8,2.9
		c2,2,2.9,4.3,2.9,6.9c0,2.7-1.3,5.5-4,8.6c-3.9,4.4-8.8,7.9-14.9,10.5c-8.2,3.4-17.2,5.1-27.1,5.1c-11.5,0-21.9-2.4-31.2-7.1
		c-7.5-3.8-13.9-9.8-19.1-18c-5.3-8.2-7.9-17.2-7.9-26.9v-13.2c0-10.1,2.4-19.6,7.1-28.4c4.7-8.8,11.3-15.5,19.6-20.3
		s17.2-7.1,26.6-7.1c5.6,0,10.9,0.7,15.8,1.9C566,67.2,568.8,68.2,571.5,69.5z" style="fill:#fff;"/>
	<path id="F" d="M410.6,143.3v11.2c0,4.8,3.9,8.7,8.7,8.7h11.3c4.7,0,8,0.9,10,2.7c2,1.8,3,4.2,3,7.1c0,2.9-1,5.2-3,7
		c-2,1.8-5.3,2.7-10,2.7h-42.5c-4.7,0-8-0.9-10-2.7s-3-4.2-3-7.1c0-2.9,1-5.2,3-7c2-1.8,5.4-2.7,10-2.7h3V86.9h-3
		c-4.7,0-8-0.9-10-2.7c-2-1.8-3-4.2-3-7.1c0-2.9,1-5.3,3-7.1c2-1.8,5.3-2.7,10-2.7l83.1,0.1c4.8,0,8.7,3.9,8.7,8.7v21.1
		c0,4.6-0.9,7.9-2.7,9.9c-1.8,2-4.2,3-7.1,3c-2.9,0-5.2-1-7-2.9c-1.8-2-2.7-5.3-2.7-10v-1.6c0-4.8-3.9-8.7-8.7-8.7h-32.4
		c-4.8,0-8.7,3.9-8.7,8.7v10.9c0,4.8,3.9,8.7,8.7,8.7h0.4c4.2,0,7.7-3,8.5-7.2c0.2-1.2,0.5-2,0.9-2.6c2-3.1,4.8-4.7,8.4-4.7
		c2.9,0,5.2,1,7,3c1.8,2,2.7,5.3,2.7,10v22.4c0,4.7-0.9,8-2.7,10c-1.8,2-4.2,3-7.1,3c-3.6,0-6.3-1.6-8.3-4.7
		c-0.4-0.6-0.7-1.5-0.9-2.7c-0.8-4.1-4.3-7.2-8.5-7.2h-0.4C414.5,134.7,410.6,138.5,410.6,143.3z"  style="fill:#fff;"/>
	<path id="L" d="M293.7,95.6v58.9c0,4.8,3.9,8.7,8.7,8.7h24.7c4.8,0,8.7-3.9,8.7-8.7v-9.8c0-4.7,0.9-8,2.7-10c1.8-2,4.2-3,7.1-3
		c2.9,0,5.2,1,7,3c1.8,2,2.7,5.3,2.7,10V174c0,4.8-3.9,8.7-8.7,8.7h-83.7c-4.7,0-8-0.9-10-2.7c-2-1.8-3-4.2-3-7.1c0-2.9,1-5.2,3-7
		c2-1.8,5.3-2.7,10-2.7h2.7c4.8,0,8.7-3.9,8.7-8.7V95.6c0-4.8-3.9-8.7-8.7-8.7h-2.7c-4.7,0-8-0.9-10-2.7c-2-1.8-3-4.2-3-7.1
		c0-2.9,1-5.3,3-7.1c2-1.8,5.3-2.7,10-2.7l42.2,0.1c4.7,0,8,0.9,10,2.7c2,1.8,3,4.1,3,7c0,2.9-1,5.3-3,7.1c-2,1.8-5.3,2.7-10,2.7
		h-2.7C297.6,86.9,293.7,90.8,293.7,95.6z"  style="fill:#fff;"/>
</g>
<g id="SHIELD">
	<path id="_x31_9" class="st0" d="M103.9,9v28.3l74.8,21.4v30.6c0,48-25,92-65.5,116.7v0l-2.6-64.5c-0.3,0.1-0.6,0.1-1,0.1h-7.4
		l2.7,68.2c0,0.1,0,0.3,0,0.4c0,3.6-2,6.7-5,8.2c0,0,0,0,0,0c0,0,0.1,0,0.1,0.1c0.2,0.1,0.5,0.2,0.7,0.3c0.1,0,0.2,0.1,0.3,0.1
		c0.2,0.1,0.5,0.1,0.7,0.2c0.1,0,0.2,0.1,0.3,0.1c0.2,0.1,0.5,0.1,0.7,0.1c0.1,0,0.2,0,0.3,0c0.3,0,0.7,0.1,1.1,0.1
		c0.2,0,0.3,0,0.5,0c-0.2,0-0.3,0-0.5,0c-0.1,0-0.1,0-0.2,0V241l2.7-1.1c60.2-25.8,99.3-85,99.3-150.7V38.1L103.9,9z"/>
	<path id="_x31_8" class="st1" d="M29.2,89.2c0,48.1,25.2,92.3,65.9,117l2.6-64.8c-2.7-0.5-4.8-2.8-4.8-5.7c0-3,2.3-5.5,5.2-5.8
		l-1.4-16.2h0L96,107h-3c-0.8,0.8-2.1,1.2-3.2,0.7l-4.8-2c-1.6-0.7-2.7-2.3-2.7-4.1v-4.5H71.6V99c0,3.2-2.6,5.9-5.9,5.9h-0.9
		c-3.2,0-5.9-2.6-5.9-5.9v-3.2L41,77.8l-0.2-0.2l0.2-0.2L59,59.5v-2.8c0-3.2,2.6-5.9,5.9-5.9h0.9c3.2,0,5.9,2.6,5.9,5.9v1.8h10.8V54
		c0-1.8,1.1-3.4,2.7-4.1l4.8-2c1.2-0.5,2.4-0.2,3.2,0.6h10.9V37.3L29.2,58.6V89.2z"/>
	<path id="_x31_7" class="st1" d="M178.7,89.2c0,48-25,92-65.5,116.7v0C153.8,181.2,178.7,137.2,178.7,89.2l0-30.6l-74.8-21.4
		l74.8,21.4V89.2z"/>
	<path id="_x31_6" class="st2" d="M115.3,48.6c0.8-0.8,2-1.1,3.2-0.6l4.8,2c1.6,0.7,2.7,2.3,2.7,4.1v4.5h10.8v-1.8
		c0-3.2,2.6-5.9,5.9-5.9h0.9c3.2,0,5.9,2.6,5.9,5.9v2.5l18.3,18.3l0.2,0.2l-0.2,0.2l-18.3,18.3V99c0,3.2-2.6,5.9-5.9,5.9h-0.9
		c-3.2,0-5.9-2.6-5.9-5.9v-1.8H126v4.4c0,1.8-1.1,3.4-2.7,4.1l-4.8,2c-1.2,0.5-2.4,0.2-3.2-0.6h-3l-2,22.9c0,0,0,0,0,0
		c0,0,0.1,0,0.1,0c0.1,0,0.3,0,0.4,0.1c0.1,0,0.1,0,0.2,0c0.1,0,0.2,0.1,0.4,0.1c0.1,0,0.1,0,0.2,0.1c0.1,0,0.2,0.1,0.3,0.1
		c0.1,0,0.1,0.1,0.2,0.1c0.1,0,0.2,0.1,0.3,0.1c0.1,0,0.1,0.1,0.2,0.1c0.1,0.1,0.2,0.1,0.3,0.2c0.1,0,0.1,0.1,0.2,0.1
		c0.1,0.1,0.2,0.1,0.2,0.2c0.1,0,0.1,0.1,0.2,0.2c0.1,0.1,0.2,0.1,0.2,0.2c0.1,0.1,0.1,0.1,0.2,0.2c0.1,0.1,0.1,0.2,0.2,0.2
		c0,0.1,0.1,0.1,0.1,0.2c0.1,0.1,0.1,0.2,0.2,0.3c0,0.1,0.1,0.1,0.1,0.2c0.1,0.1,0.1,0.2,0.2,0.3c0,0.1,0.1,0.1,0.1,0.2
		c0.1,0.1,0.1,0.2,0.2,0.3c0,0.1,0.1,0.1,0.1,0.2c0.1,0.1,0.1,0.3,0.1,0.4c0,0,0,0.1,0,0.1c0,0.1,0.1,0.3,0.1,0.4c0,0,0,0.1,0,0.1
		c0.1,0.4,0.1,0.8,0.1,1.2c0,0,0,0.1,0,0.1c0,0.2,0,0.4,0,0.5c0,0.1,0,0.2,0,0.3c0,0.1,0,0.3-0.1,0.4c0,0.1,0,0.2-0.1,0.2
		c0,0.1-0.1,0.3-0.1,0.4c0,0.1,0,0.1-0.1,0.2c-0.1,0.2-0.2,0.4-0.3,0.6c0,0,0,0,0,0c-0.1,0.2-0.2,0.3-0.3,0.5c0,0-0.1,0.1-0.1,0.1
		c-0.1,0.1-0.2,0.3-0.3,0.4c0,0-0.1,0.1-0.1,0.1c0,0-0.1,0.1-0.1,0.1c-0.1,0.1-0.2,0.2-0.3,0.3c0,0-0.1,0.1-0.1,0.1
		c-0.2,0.1-0.4,0.3-0.5,0.4c-0.7,0.4-1.4,0.7-2.2,0.9l2.6,64.5c40.5-24.7,65.5-68.7,65.5-116.7V58.6l-74.8-21.4v11.3H115.3z"/>
	<polygon id="_x31_5" class="st3" points="167.6,77.8 167.8,77.6 167.6,77.4 149.4,59.1 149.4,96.1 	"/>
	<polygon id="_x31_4" class="st3" points="41,77.4 40.8,77.6 41,77.8 59,95.7 59,59.5 	"/>
	<path id="_x31_3" class="st4" d="M104.2,219.4c0.2,0,0.3,0,0.5,0C104.5,219.3,104.3,219.4,104.2,219.4c-0.4,0-0.7,0-1.1-0.1
		c-0.1,0-0.2,0-0.3,0c-0.3,0-0.5-0.1-0.7-0.1c-0.1,0-0.2-0.1-0.3-0.1c-0.2-0.1-0.5-0.1-0.7-0.2c-0.1,0-0.2-0.1-0.3-0.1
		c-0.2-0.1-0.5-0.2-0.7-0.3c0,0-0.1,0-0.1-0.1c0,0,0,0,0,0c3-1.5,5-4.7,5-8.2c0-0.1,0-0.3,0-0.4l-2.7-68.2h-1c0,0,0,0,0,0h-2.7
		c-0.3,0-0.7,0-1-0.1l-2.6,64.8c-40.8-24.7-65.9-68.8-65.9-117V58.6l74.8-21.4V9L2,38.1v51.1c0,65.7,39,124.8,99.3,150.7l2.7,1.1
		v-21.7C104,219.3,104.1,219.4,104.2,219.4z"/>
	<path id="_x31_2" class="st4" d="M103,129.9v-12.5c0-2-1.6-3.6-3.6-3.6h-2.7l1.4,16.2c0.2,0,0.4,0,0.6,0H103z"/>
	<polygon id="_x31_1" class="st4" points="110.3,129.9 110.3,129.9 112.3,107 112.3,107 	"/>
	<path id="_x31_0" class="st0" d="M103,117.3v12.5h6.8c0.2,0,0.4,0,0.6,0l2-22.9h0h3c-0.5-0.5-0.9-1.2-0.9-2.1V50.7
		c0-0.8,0.3-1.5,0.8-2H104V107h-8l0.6,6.8h0h2.7C101.3,113.7,103,115.4,103,117.3z"/>
	<path id="_x39_" class="st1" d="M115.5,135.8c0,0,0-0.1,0-0.1c0-0.4,0-0.8-0.1-1.2c0.1,0.4,0.1,0.8,0.1,1.2
		C115.5,135.7,115.5,135.8,115.5,135.8z"/>
	<path id="_x38_" class="st5" d="M113.4,140.1C113.5,140.1,113.5,140.1,113.4,140.1c0.2-0.2,0.3-0.3,0.4-0.3c0,0,0.1-0.1,0.1-0.1
		c0,0,0.1-0.1,0.1-0.1c0.1-0.1,0.2-0.3,0.3-0.4c0,0,0.1-0.1,0.1-0.1c0.1-0.2,0.2-0.3,0.3-0.5c0,0,0,0,0,0c0.1-0.2,0.2-0.4,0.3-0.6
		c0-0.1,0-0.1,0.1-0.2c0.1-0.1,0.1-0.3,0.1-0.4c0-0.1,0-0.2,0.1-0.2c0-0.1,0.1-0.3,0.1-0.4c0-0.1,0-0.2,0-0.3c0-0.2,0-0.4,0-0.5
		c0,0,0-0.1,0-0.1c0-0.4,0-0.8-0.1-1.2c0,0,0-0.1,0-0.1c0-0.2-0.1-0.3-0.1-0.4c0,0,0-0.1,0-0.1c0-0.1-0.1-0.3-0.1-0.4
		c0-0.1,0-0.1-0.1-0.2c-0.1-0.1-0.1-0.2-0.2-0.3c0-0.1-0.1-0.1-0.1-0.2c-0.1-0.1-0.1-0.2-0.2-0.3c0-0.1-0.1-0.1-0.1-0.2
		c-0.1-0.1-0.1-0.2-0.2-0.3c0-0.1-0.1-0.1-0.1-0.2c-0.1-0.1-0.1-0.2-0.2-0.2c-0.1-0.1-0.1-0.1-0.2-0.2c-0.1-0.1-0.2-0.1-0.2-0.2
		c-0.1-0.1-0.1-0.1-0.2-0.2c-0.1-0.1-0.2-0.1-0.2-0.2c-0.1,0-0.1-0.1-0.2-0.1c-0.1-0.1-0.2-0.1-0.3-0.2c-0.1,0-0.1-0.1-0.2-0.1
		c-0.1,0-0.2-0.1-0.3-0.1c-0.1,0-0.1-0.1-0.2-0.1c-0.1,0-0.2-0.1-0.3-0.1c-0.1,0-0.1,0-0.2-0.1c-0.1,0-0.2-0.1-0.4-0.1
		c-0.1,0-0.1,0-0.2,0c-0.1,0-0.3,0-0.4-0.1c0,0-0.1,0-0.1,0c0,0,0,0,0,0c0,0,0,0,0,0c-0.2,0-0.4,0-0.6,0H103h-4.3
		c-0.2,0-0.4,0-0.6,0c-2.9,0.3-5.2,2.8-5.2,5.8c0,2.9,2.1,5.3,4.8,5.7c0.3,0.1,0.6,0.1,1,0.1h2.7c0,0,0,0,0,0h1h7.4
		c0.3,0,0.7,0,1-0.1c0.8-0.1,1.5-0.4,2.2-0.9C113.1,140.4,113.3,140.3,113.4,140.1z"/>
	<rect id="_x37_" x="71.6" y="58.5" class="st0" width="10.8" height="38.6"/>
	<rect id="_x36_" x="126" y="58.5" class="st0" width="10.8" height="38.6"/>
	<path id="_x35_" class="st5" d="M71.6,56.7c0-3.2-2.6-5.9-5.9-5.9h-0.9c-3.2,0-5.9,2.6-5.9,5.9v2.8v36.2V99c0,3.2,2.6,5.9,5.9,5.9
		h0.9c3.2,0,5.9-2.6,5.9-5.9v-1.8V58.5V56.7z"/>
	<path id="_x34_" class="st5" d="M136.8,99c0,3.2,2.6,5.9,5.9,5.9h0.9c3.2,0,5.9-2.6,5.9-5.9v-2.9V59.1v-2.5c0-3.2-2.6-5.9-5.9-5.9
		h-0.9c-3.2,0-5.9,2.6-5.9,5.9v1.8v38.6V99z"/>
	<path id="_x33_" class="st4" d="M104,48.6h11.3c0,0,0,0,0,0L104,48.6l-10.9,0c0.5,0.5,0.8,1.2,0.8,2.1l0,54.3c0,0.8-0.3,1.5-0.8,2
		h3h8V48.6z"/>
	<path id="_x32_" class="st5" d="M93.9,50.7c0-0.8-0.3-1.5-0.8-2.1c-0.8-0.8-2-1.1-3.2-0.6l-4.8,2c-1.6,0.7-2.7,2.3-2.7,4.1v4.4
		l0,38.6v4.5c0,1.8,1.1,3.4,2.7,4.1l4.8,2c1.2,0.5,2.4,0.2,3.2-0.7c0.5-0.5,0.8-1.2,0.8-2L93.9,50.7z"/>
	<path id="_x31_" class="st5" d="M114.5,50.7v54.3c0,0.8,0.3,1.5,0.9,2.1c0.8,0.8,2,1.1,3.2,0.6l4.8-2c1.6-0.7,2.7-2.3,2.7-4.1v-4.4
		l0-38.6V54c0-1.8-1.1-3.4-2.7-4.1l-4.8-2c-1.2-0.5-2.4-0.2-3.2,0.6c0,0,0,0,0,0C114.8,49.2,114.5,49.9,114.5,50.7z"/>
</g>
</svg>
